<svg width="96" height="96" viewBox="0 0 96 96" fill="none" xmlns="http://www.w3.org/2000/svg">
<g clip-path="url(#clip0_8_23)">
<path d="M0 15C0 6.71573 6.71573 0 15 0H81C89.2843 0 96 6.71573 96 15V81C96 89.2843 89.2843 96 81 96H15C6.71573 96 0 89.2843 0 81V15Z" fill="#414141"/>
<g filter="url(#filter0_ii_8_23)">
<path d="M78.5136 16.5H69.1311C57.2061 16.5 45.6861 20.73 36.5961 28.425C27.0111 36.5475 21.4761 48.495 21.4761 61.0725V68.385C21.4761 68.385 21.8586 67.71 22.5786 66.5625C22.3761 67.4175 22.2861 67.89 22.2861 67.89V68.385H31.1061C35.7861 68.385 40.2861 67.3275 44.3586 65.37C44.8311 65.145 44.8311 64.47 44.3586 64.245L39.4761 61.9725C39.1836 61.8825 39.2736 61.5 39.5661 61.5H49.7586C50.2311 61.5 50.6811 61.32 51.0411 61.0275C54.0336 58.4625 56.5536 55.3125 58.3986 51.69C59.0736 50.34 60.3561 47.9325 61.0536 46.6275C61.3461 46.0875 61.3236 45.435 61.0086 44.895L57.9486 39.855C57.7236 39.4725 57.9936 39 58.4211 39H64.4061C64.9911 39 65.5536 38.685 65.8461 38.19C69.8511 31.53 74.4861 24.8025 79.5261 19.1775C79.8186 18.8625 79.9761 18.435 79.9761 18.0075C79.9986 17.175 79.3236 16.5 78.5136 16.5Z" fill="url(#paint0_linear_8_23)"/>
<path d="M78.5136 16.5H69.1311C57.2061 16.5 45.6861 20.73 36.5961 28.425C27.0111 36.5475 21.4761 48.495 21.4761 61.0725V68.385C21.4761 68.385 21.8586 67.71 22.5786 66.5625C22.3761 67.4175 22.2861 67.89 22.2861 67.89V68.385H31.1061C35.7861 68.385 40.2861 67.3275 44.3586 65.37C44.8311 65.145 44.8311 64.47 44.3586 64.245L39.4761 61.9725C39.1836 61.8825 39.2736 61.5 39.5661 61.5H49.7586C50.2311 61.5 50.6811 61.32 51.0411 61.0275C54.0336 58.4625 56.5536 55.3125 58.3986 51.69C59.0736 50.34 60.3561 47.9325 61.0536 46.6275C61.3461 46.0875 61.3236 45.435 61.0086 44.895L57.9486 39.855C57.7236 39.4725 57.9936 39 58.4211 39H64.4061C64.9911 39 65.5536 38.685 65.8461 38.19C69.8511 31.53 74.4861 24.8025 79.5261 19.1775C79.8186 18.8625 79.9761 18.435 79.9761 18.0075C79.9986 17.175 79.3236 16.5 78.5136 16.5Z" fill="url(#paint1_radial_8_23)"/>
<path d="M78.5136 16.5H69.1311C57.2061 16.5 45.6861 20.73 36.5961 28.425C27.0111 36.5475 21.4761 48.495 21.4761 61.0725V68.385C21.4761 68.385 21.8586 67.71 22.5786 66.5625C22.3761 67.4175 22.2861 67.89 22.2861 67.89V68.385H31.1061C35.7861 68.385 40.2861 67.3275 44.3586 65.37C44.8311 65.145 44.8311 64.47 44.3586 64.245L39.4761 61.9725C39.1836 61.8825 39.2736 61.5 39.5661 61.5H49.7586C50.2311 61.5 50.6811 61.32 51.0411 61.0275C54.0336 58.4625 56.5536 55.3125 58.3986 51.69C59.0736 50.34 60.3561 47.9325 61.0536 46.6275C61.3461 46.0875 61.3236 45.435 61.0086 44.895L57.9486 39.855C57.7236 39.4725 57.9936 39 58.4211 39H64.4061C64.9911 39 65.5536 38.685 65.8461 38.19C69.8511 31.53 74.4861 24.8025 79.5261 19.1775C79.8186 18.8625 79.9761 18.435 79.9761 18.0075C79.9986 17.175 79.3236 16.5 78.5136 16.5Z" fill="url(#paint2_radial_8_23)"/>
<path d="M78.5136 16.5H69.1311C57.2061 16.5 45.6861 20.73 36.5961 28.425C27.0111 36.5475 21.4761 48.495 21.4761 61.0725V68.385C21.4761 68.385 21.8586 67.71 22.5786 66.5625C22.3761 67.4175 22.2861 67.89 22.2861 67.89V68.385H31.1061C35.7861 68.385 40.2861 67.3275 44.3586 65.37C44.8311 65.145 44.8311 64.47 44.3586 64.245L39.4761 61.9725C39.1836 61.8825 39.2736 61.5 39.5661 61.5H49.7586C50.2311 61.5 50.6811 61.32 51.0411 61.0275C54.0336 58.4625 56.5536 55.3125 58.3986 51.69C59.0736 50.34 60.3561 47.9325 61.0536 46.6275C61.3461 46.0875 61.3236 45.435 61.0086 44.895L57.9486 39.855C57.7236 39.4725 57.9936 39 58.4211 39H64.4061C64.9911 39 65.5536 38.685 65.8461 38.19C69.8511 31.53 74.4861 24.8025 79.5261 19.1775C79.8186 18.8625 79.9761 18.435 79.9761 18.0075C79.9986 17.175 79.3236 16.5 78.5136 16.5Z" fill="url(#paint3_radial_8_23)"/>
<path d="M78.5136 16.5H69.1311C57.2061 16.5 45.6861 20.73 36.5961 28.425C27.0111 36.5475 21.4761 48.495 21.4761 61.0725V68.385C21.4761 68.385 21.8586 67.71 22.5786 66.5625C22.3761 67.4175 22.2861 67.89 22.2861 67.89V68.385H31.1061C35.7861 68.385 40.2861 67.3275 44.3586 65.37C44.8311 65.145 44.8311 64.47 44.3586 64.245L39.4761 61.9725C39.1836 61.8825 39.2736 61.5 39.5661 61.5H49.7586C50.2311 61.5 50.6811 61.32 51.0411 61.0275C54.0336 58.4625 56.5536 55.3125 58.3986 51.69C59.0736 50.34 60.3561 47.9325 61.0536 46.6275C61.3461 46.0875 61.3236 45.435 61.0086 44.895L57.9486 39.855C57.7236 39.4725 57.9936 39 58.4211 39H64.4061C64.9911 39 65.5536 38.685 65.8461 38.19C69.8511 31.53 74.4861 24.8025 79.5261 19.1775C79.8186 18.8625 79.9761 18.435 79.9761 18.0075C79.9986 17.175 79.3236 16.5 78.5136 16.5Z" fill="url(#paint4_radial_8_23)"/>
</g>
<path d="M78.5136 16.5H69.1311C57.2061 16.5 45.6861 20.73 36.5961 28.425C27.0111 36.5475 21.4761 48.495 21.4761 61.0725V68.385C21.4761 68.385 21.8586 67.71 22.5786 66.5625C22.3761 67.4175 22.2861 67.89 22.2861 67.89V68.385H31.1061C35.7861 68.385 40.2861 67.3275 44.3586 65.37C44.8311 65.145 44.8311 64.47 44.3586 64.245L39.4761 61.9725C39.1836 61.8825 39.2736 61.5 39.5661 61.5H49.7586C50.2311 61.5 50.6811 61.32 51.0411 61.0275C54.0336 58.4625 56.5536 55.3125 58.3986 51.69C59.0736 50.34 60.3561 47.9325 61.0536 46.6275C61.3461 46.0875 61.3236 45.435 61.0086 44.895L57.9486 39.855C57.7236 39.4725 57.9936 39 58.4211 39H64.4061C64.9911 39 65.5536 38.685 65.8461 38.19C69.8511 31.53 74.4861 24.8025 79.5261 19.1775C79.8186 18.8625 79.9761 18.435 79.9761 18.0075C79.9986 17.175 79.3236 16.5 78.5136 16.5Z" fill="url(#paint5_linear_8_23)"/>
<path d="M78.5136 16.5H69.1311C57.2061 16.5 45.6861 20.73 36.5961 28.425C27.0111 36.5475 21.4761 48.495 21.4761 61.0725V68.385C21.4761 68.385 21.8586 67.71 22.5786 66.5625C22.3761 67.4175 22.2861 67.89 22.2861 67.89V68.385H31.1061C35.7861 68.385 40.2861 67.3275 44.3586 65.37C44.8311 65.145 44.8311 64.47 44.3586 64.245L39.4761 61.9725C39.1836 61.8825 39.2736 61.5 39.5661 61.5H49.7586C50.2311 61.5 50.6811 61.32 51.0411 61.0275C54.0336 58.4625 56.5536 55.3125 58.3986 51.69C59.0736 50.34 60.3561 47.9325 61.0536 46.6275C61.3461 46.0875 61.3236 45.435 61.0086 44.895L57.9486 39.855C57.7236 39.4725 57.9936 39 58.4211 39H64.4061C64.9911 39 65.5536 38.685 65.8461 38.19C69.8511 31.53 74.4861 24.8025 79.5261 19.1775C79.8186 18.8625 79.9761 18.435 79.9761 18.0075C79.9986 17.175 79.3236 16.5 78.5136 16.5Z" fill="url(#paint6_radial_8_23)"/>
<path d="M72.7085 27.75H55.181V18.48C51.1985 19.6275 47.351 21.27 43.751 23.385V39H64.4285C65.0135 39 65.576 38.685 65.8685 38.19C67.9835 34.6575 70.2785 31.125 72.7085 27.75Z" fill="url(#paint7_linear_8_23)"/>
<path d="M72.7085 27.75H55.181V18.48C51.1985 19.6275 47.351 21.27 43.751 23.385V39H64.4285C65.0135 39 65.576 38.685 65.8685 38.19C67.9835 34.6575 70.2785 31.125 72.7085 27.75Z" fill="url(#paint8_radial_8_23)"/>
<path d="M72.7085 27.75H55.181V18.48C51.1985 19.6275 47.351 21.27 43.751 23.385V39H64.4285C65.0135 39 65.576 38.685 65.8685 38.19C67.9835 34.6575 70.2785 31.125 72.7085 27.75Z" fill="url(#paint9_linear_8_23)"/>
<g filter="url(#filter1_f_8_23)">
<path d="M22.286 68.2301C26.8102 58.3117 33.0402 49.3414 40.8148 41.5875C48.7123 33.69 57.8023 27.4125 67.9048 22.8675C68.5123 22.5975 68.7598 21.9225 68.4673 21.315C68.1973 20.775 67.5448 20.55 67.0048 20.7975C56.6548 25.455 47.3398 31.9125 39.2398 39.99C31.9577 47.2722 26.8098 54.7865 22.286 63.9258L22.5785 66.5625C22.376 67.4175 22.286 67.89 22.286 67.89V68.2301Z" fill="#995E44"/>
</g>
<g filter="url(#filter2_i_8_23)">
<path d="M69.3111 21.315C69.0411 20.775 68.3886 20.55 67.8486 20.7975C57.4986 25.455 48.1836 31.9125 40.0836 39.99C31.4886 48.585 24.7386 58.5975 20.0136 69.735C18.8661 72.4575 17.8536 75.2025 16.9761 77.9925C16.7736 78.6675 17.1561 79.365 17.8311 79.4775C18.4161 79.59 18.9561 79.23 19.1136 78.69C19.9686 75.9675 20.9586 73.2675 22.0836 70.6125C26.6736 59.745 33.2661 49.9575 41.6586 41.5875C49.5561 33.69 58.6461 27.4125 68.7486 22.8675C69.3561 22.5975 69.6036 21.9225 69.3111 21.315C69.3111 21.3375 69.3111 21.3375 69.3111 21.315Z" fill="url(#paint10_linear_8_23)"/>
<path d="M69.3111 21.315C69.0411 20.775 68.3886 20.55 67.8486 20.7975C57.4986 25.455 48.1836 31.9125 40.0836 39.99C31.4886 48.585 24.7386 58.5975 20.0136 69.735C18.8661 72.4575 17.8536 75.2025 16.9761 77.9925C16.7736 78.6675 17.1561 79.365 17.8311 79.4775C18.4161 79.59 18.9561 79.23 19.1136 78.69C19.9686 75.9675 20.9586 73.2675 22.0836 70.6125C26.6736 59.745 33.2661 49.9575 41.6586 41.5875C49.5561 33.69 58.6461 27.4125 68.7486 22.8675C69.3561 22.5975 69.6036 21.9225 69.3111 21.315C69.3111 21.3375 69.3111 21.3375 69.3111 21.315Z" fill="url(#paint11_linear_8_23)"/>
</g>
<path d="M69.3111 21.315C69.0411 20.775 68.3886 20.55 67.8486 20.7975C57.4986 25.455 48.1836 31.9125 40.0836 39.99C31.4886 48.585 24.7386 58.5975 20.0136 69.735C18.8661 72.4575 17.8536 75.2025 16.9761 77.9925C16.7736 78.6675 17.1561 79.365 17.8311 79.4775C18.4161 79.59 18.9561 79.23 19.1136 78.69C19.9686 75.9675 20.9586 73.2675 22.0836 70.6125C26.6736 59.745 33.2661 49.9575 41.6586 41.5875C49.5561 33.69 58.6461 27.4125 68.7486 22.8675C69.3561 22.5975 69.6036 21.9225 69.3111 21.315C69.3111 21.3375 69.3111 21.3375 69.3111 21.315Z" fill="url(#paint12_radial_8_23)"/>
<path d="M69.3111 21.315C69.0411 20.775 68.3886 20.55 67.8486 20.7975C57.4986 25.455 48.1836 31.9125 40.0836 39.99C31.4886 48.585 24.7386 58.5975 20.0136 69.735C18.8661 72.4575 17.8536 75.2025 16.9761 77.9925C16.7736 78.6675 17.1561 79.365 17.8311 79.4775C18.4161 79.59 18.9561 79.23 19.1136 78.69C19.9686 75.9675 20.9586 73.2675 22.0836 70.6125C26.6736 59.745 33.2661 49.9575 41.6586 41.5875C49.5561 33.69 58.6461 27.4125 68.7486 22.8675C69.3561 22.5975 69.6036 21.9225 69.3111 21.315C69.3111 21.3375 69.3111 21.3375 69.3111 21.315Z" fill="url(#paint13_radial_8_23)"/>
<g filter="url(#filter3_f_8_23)">
<path d="M18.0469 78.375C21.5156 67.2187 30.6328 44.8359 56.5781 28.2422" stroke="url(#paint14_linear_8_23)" stroke-width="0.25" stroke-linecap="round"/>
</g>
</g>
<defs>
<filter id="filter0_ii_8_23" x="21.4761" y="16.25" width="58.7505" height="52.635" filterUnits="userSpaceOnUse" color-interpolation-filters="sRGB">
<feFlood flood-opacity="0" result="BackgroundImageFix"/>
<feBlend mode="normal" in="SourceGraphic" in2="BackgroundImageFix" result="shape"/>
<feColorMatrix in="SourceAlpha" type="matrix" values="0 0 0 0 0 0 0 0 0 0 0 0 0 0 0 0 0 0 127 0" result="hardAlpha"/>
<feOffset dx="0.25" dy="0.5"/>
<feGaussianBlur stdDeviation="0.5"/>
<feComposite in2="hardAlpha" operator="arithmetic" k2="-1" k3="1"/>
<feColorMatrix type="matrix" values="0 0 0 0 0.690196 0 0 0 0 0.466667 0 0 0 0 0.286275 0 0 0 1 0"/>
<feBlend mode="normal" in2="shape" result="effect1_innerShadow_8_23"/>
<feColorMatrix in="SourceAlpha" type="matrix" values="0 0 0 0 0 0 0 0 0 0 0 0 0 0 0 0 0 0 127 0" result="hardAlpha"/>
<feOffset dy="-0.25"/>
<feGaussianBlur stdDeviation="0.5"/>
<feComposite in2="hardAlpha" operator="arithmetic" k2="-1" k3="1"/>
<feColorMatrix type="matrix" values="0 0 0 0 0.816667 0 0 0 0 0.455972 0 0 0 0 0.501059 0 0 0 1 0"/>
<feBlend mode="normal" in2="effect1_innerShadow_8_23" result="effect2_innerShadow_8_23"/>
</filter>
<filter id="filter1_f_8_23" x="21.786" y="20.1973" width="47.304" height="48.5328" filterUnits="userSpaceOnUse" color-interpolation-filters="sRGB">
<feFlood flood-opacity="0" result="BackgroundImageFix"/>
<feBlend mode="normal" in="SourceGraphic" in2="BackgroundImageFix" result="shape"/>
<feGaussianBlur stdDeviation="0.25" result="effect1_foregroundBlur_8_23"/>
</filter>
<filter id="filter2_i_8_23" x="16.9219" y="20.6973" width="52.5118" height="59.0509" filterUnits="userSpaceOnUse" color-interpolation-filters="sRGB">
<feFlood flood-opacity="0" result="BackgroundImageFix"/>
<feBlend mode="normal" in="SourceGraphic" in2="BackgroundImageFix" result="shape"/>
<feColorMatrix in="SourceAlpha" type="matrix" values="0 0 0 0 0 0 0 0 0 0 0 0 0 0 0 0 0 0 127 0" result="hardAlpha"/>
<feOffset dy="0.25"/>
<feGaussianBlur stdDeviation="0.375"/>
<feComposite in2="hardAlpha" operator="arithmetic" k2="-1" k3="1"/>
<feColorMatrix type="matrix" values="0 0 0 0 0.682353 0 0 0 0 0.443137 0 0 0 0 0.270588 0 0 0 1 0"/>
<feBlend mode="normal" in2="shape" result="effect1_innerShadow_8_23"/>
</filter>
<filter id="filter3_f_8_23" x="17.4218" y="27.6172" width="39.7813" height="51.3829" filterUnits="userSpaceOnUse" color-interpolation-filters="sRGB">
<feFlood flood-opacity="0" result="BackgroundImageFix"/>
<feBlend mode="normal" in="SourceGraphic" in2="BackgroundImageFix" result="shape"/>
<feGaussianBlur stdDeviation="0.25" result="effect1_foregroundBlur_8_23"/>
</filter>
<linearGradient id="paint0_linear_8_23" x1="15.2344" y1="74.7187" x2="71.4607" y2="14.7045" gradientUnits="userSpaceOnUse">
<stop stop-color="#CE9270"/>
<stop offset="1" stop-color="#D78C55"/>
</linearGradient>
<radialGradient id="paint1_radial_8_23" cx="0" cy="0" r="1" gradientUnits="userSpaceOnUse" gradientTransform="translate(50.7263 68.385) rotate(-118.387) scale(27.3271 138.315)">
<stop stop-color="#E6A180"/>
<stop offset="1" stop-color="#E6A180" stop-opacity="0"/>
</radialGradient>
<radialGradient id="paint2_radial_8_23" cx="0" cy="0" r="1" gradientUnits="userSpaceOnUse" gradientTransform="translate(43.8516 62.5547) rotate(-171.511) scale(9.52624 2.20771)">
<stop stop-color="#F2C48E"/>
<stop offset="1" stop-color="#F2C48E" stop-opacity="0"/>
</radialGradient>
<radialGradient id="paint3_radial_8_23" cx="0" cy="0" r="1" gradientUnits="userSpaceOnUse" gradientTransform="translate(64.4531 44.4844) rotate(-122.876) scale(13.7302 7.82649)">
<stop stop-color="#F2C48E"/>
<stop offset="1" stop-color="#F2C48E" stop-opacity="0"/>
</radialGradient>
<radialGradient id="paint4_radial_8_23" cx="0" cy="0" r="1" gradientUnits="userSpaceOnUse" gradientTransform="translate(60.7969 62.2031) rotate(-143.379) scale(38.8972 71.3215)">
<stop offset="0.685432" stop-color="#C68A61" stop-opacity="0"/>
<stop offset="1" stop-color="#C68A61"/>
</radialGradient>
<linearGradient id="paint5_linear_8_23" x1="73.0313" y1="12.4219" x2="51.7969" y2="29.7187" gradientUnits="userSpaceOnUse">
<stop stop-color="#CE8646"/>
<stop offset="1" stop-color="#CE8646" stop-opacity="0"/>
</linearGradient>
<radialGradient id="paint6_radial_8_23" cx="0" cy="0" r="1" gradientUnits="userSpaceOnUse" gradientTransform="translate(79.9766 16.9922) rotate(147.304) scale(6.24785 3.01899)">
<stop stop-color="#EFA86F"/>
<stop offset="1" stop-color="#E39C62" stop-opacity="0"/>
</radialGradient>
<linearGradient id="paint7_linear_8_23" x1="44.7656" y1="39" x2="65.0156" y2="26.9062" gradientUnits="userSpaceOnUse">
<stop stop-color="#9F6562"/>
<stop offset="1" stop-color="#BC755B"/>
</linearGradient>
<radialGradient id="paint8_radial_8_23" cx="0" cy="0" r="1" gradientUnits="userSpaceOnUse" gradientTransform="translate(64.3828 40.5469) rotate(-152.671) scale(11.7928 4.78965)">
<stop stop-color="#934E4C"/>
<stop offset="1" stop-color="#934E4C" stop-opacity="0"/>
</radialGradient>
<linearGradient id="paint9_linear_8_23" x1="42.5156" y1="42.9375" x2="50.5313" y2="36.3281" gradientUnits="userSpaceOnUse">
<stop stop-color="#9C6361"/>
<stop offset="1" stop-color="#9C6361" stop-opacity="0"/>
</linearGradient>
<linearGradient id="paint10_linear_8_23" x1="57.9844" y1="31.6875" x2="16.9219" y2="85.125" gradientUnits="userSpaceOnUse">
<stop offset="0.00558659" stop-color="#D38750"/>
<stop offset="1" stop-color="#EEA374"/>
</linearGradient>
<linearGradient id="paint11_linear_8_23" x1="99.0469" y1="0.0469076" x2="27.6094" y2="58.4063" gradientUnits="userSpaceOnUse">
<stop stop-color="#D77D2C"/>
<stop offset="1" stop-color="#D77D2C" stop-opacity="0"/>
</linearGradient>
<radialGradient id="paint12_radial_8_23" cx="0" cy="0" r="1" gradientUnits="userSpaceOnUse" gradientTransform="translate(69.4337 21.3867) rotate(156.111) scale(1.90986 1.41843)">
<stop stop-color="#F3A963"/>
<stop offset="1" stop-color="#F3A963" stop-opacity="0"/>
</radialGradient>
<radialGradient id="paint13_radial_8_23" cx="0" cy="0" r="1" gradientUnits="userSpaceOnUse" gradientTransform="translate(59.0391 30.8438) rotate(-124.019) scale(3.39326 17.0533)">
<stop stop-color="#BB3CCF"/>
<stop offset="1" stop-color="#BB3CCF" stop-opacity="0"/>
</radialGradient>
<linearGradient id="paint14_linear_8_23" x1="22.6875" y1="75.9844" x2="54.8906" y2="31.8281" gradientUnits="userSpaceOnUse">
<stop stop-color="#FAAD7C"/>
<stop offset="1" stop-color="#FAAD7C" stop-opacity="0"/>
</linearGradient>
<clipPath id="clip0_8_23">
<rect width="96" height="96" fill="white"/>
</clipPath>
</defs>
</svg>
